<mxfile host="app.diagrams.net" modified="2023-12-04T12:41:44.459Z" agent="Mozilla/5.0 (Windows NT 10.0; Win64; x64) AppleWebKit/537.36 (KHTML, like Gecko) Chrome/119.0.0.0 Safari/537.36" etag="C14rtXPoN3K7Yx6Em2-d" version="22.1.5" type="github">
  <diagram name="Pagina-1" id="6jVV9uchFTwSkhsVn8Fx">
    <mxGraphModel dx="350" dy="1288" grid="0" gridSize="10" guides="1" tooltips="1" connect="1" arrows="1" fold="1" page="1" pageScale="1" pageWidth="850" pageHeight="1100" math="0" shadow="0">
      <root>
        <mxCell id="0" />
        <mxCell id="1" parent="0" />
        <mxCell id="OS-Ou4QBS4Z1JC2cFNdL-6" value="Rule" style="swimlane;fontStyle=1;align=center;verticalAlign=top;childLayout=stackLayout;horizontal=1;startSize=26;horizontalStack=0;resizeParent=1;resizeParentMax=0;resizeLast=0;collapsible=1;marginBottom=0;whiteSpace=wrap;html=1;labelBackgroundColor=none;" parent="1" vertex="1">
          <mxGeometry x="879" y="-155" width="493" height="486" as="geometry" />
        </mxCell>
        <mxCell id="OS-Ou4QBS4Z1JC2cFNdL-7" value="&lt;div&gt;&lt;b&gt;- ruleName: &lt;/b&gt;String&lt;br&gt;&lt;b&gt;- trigger: &lt;/b&gt;Trigger&lt;/div&gt;&lt;div&gt;&lt;b&gt;- action: &lt;/b&gt;Action&lt;/div&gt;&lt;div&gt;-&amp;nbsp;&lt;b style=&quot;border-color: var(--border-color);&quot;&gt;isActive&lt;/b&gt;: boolean&lt;br&gt;&lt;/div&gt;&lt;div&gt;- &lt;b&gt;triggeredOnce&lt;/b&gt;: boolean&lt;/div&gt;&lt;div&gt;- &lt;b&gt;alreadyTriggered:&lt;/b&gt; boolean&lt;/div&gt;&lt;div&gt;- &lt;b&gt;days: &lt;/b&gt;int&lt;/div&gt;&lt;div&gt;&lt;b&gt;- hours: &lt;/b&gt;int&lt;/div&gt;&lt;div&gt;- &lt;b&gt;minutes:&lt;/b&gt; int&lt;/div&gt;&lt;div&gt;- &lt;b&gt;period:&lt;/b&gt; Duration&lt;/div&gt;&lt;div&gt;-&lt;b&gt;&amp;nbsp;lastExecutionTime&lt;/b&gt;: long&lt;/div&gt;&lt;div&gt;&lt;br&gt;&lt;/div&gt;" style="text;strokeColor=none;fillColor=none;align=left;verticalAlign=top;spacingLeft=4;spacingRight=4;overflow=hidden;rotatable=0;points=[[0,0.5],[1,0.5]];portConstraint=eastwest;whiteSpace=wrap;html=1;labelBackgroundColor=none;" parent="OS-Ou4QBS4Z1JC2cFNdL-6" vertex="1">
          <mxGeometry y="26" width="493" height="169" as="geometry" />
        </mxCell>
        <mxCell id="OS-Ou4QBS4Z1JC2cFNdL-8" value="" style="line;strokeWidth=1;fillColor=none;align=left;verticalAlign=middle;spacingTop=-1;spacingLeft=3;spacingRight=3;rotatable=0;labelPosition=right;points=[];portConstraint=eastwest;strokeColor=inherit;labelBackgroundColor=none;" parent="OS-Ou4QBS4Z1JC2cFNdL-6" vertex="1">
          <mxGeometry y="195" width="493" height="8" as="geometry" />
        </mxCell>
        <mxCell id="OS-Ou4QBS4Z1JC2cFNdL-9" value="&lt;div&gt;+ &lt;b&gt;Rule&lt;/b&gt;(ruleName: String, trigger: Trigger, action: Action, triggeredOnce: boolean)&lt;/div&gt;&lt;div style=&quot;border-color: var(--border-color);&quot;&gt;+&amp;nbsp;&lt;b style=&quot;border-color: var(--border-color);&quot;&gt;Rule&lt;/b&gt;(ruleName: String, trigger: Trigger, action: Action, days: int, hours: int,minutes: int )&lt;/div&gt;&lt;div style=&quot;border-color: var(--border-color);&quot;&gt;+ &lt;b&gt;isTriggeredOnce():&lt;/b&gt; boolean&lt;/div&gt;&lt;div&gt;+ &lt;b&gt;setTriggeredOnce&lt;/b&gt;(triggeredOnce: boolean): void&lt;/div&gt;&lt;div&gt;+ &lt;b&gt;isAlreadyTriggered&lt;/b&gt;(): boolean&lt;/div&gt;&lt;div&gt;+ &lt;b&gt;setAlreadyTriggered&lt;/b&gt;(alreadyTriggered: boolean): void&lt;/div&gt;&lt;div&gt;&lt;div&gt;+ &lt;b&gt;updatePeriod&lt;/b&gt;(): void&amp;nbsp; &amp;nbsp; &amp;nbsp; &amp;nbsp; &amp;nbsp; &amp;nbsp; &amp;nbsp; &amp;nbsp;&amp;nbsp;&lt;/div&gt;&lt;div&gt;+ &lt;b&gt;getPeriod&lt;/b&gt;(): Duration&amp;nbsp; &amp;nbsp; &amp;nbsp; &amp;nbsp; &amp;nbsp; &amp;nbsp; &amp;nbsp; &amp;nbsp;&amp;nbsp;&lt;/div&gt;&lt;div&gt;+ &lt;b&gt;setPeriod&lt;/b&gt;(newDays: int,newHours: int,newMinutes: int): void&lt;/div&gt;&lt;/div&gt;&lt;div&gt;+&amp;nbsp;&lt;b&gt;getLastExecutionTime&lt;/b&gt;(): long&lt;/div&gt;&lt;div&gt;+&amp;nbsp;&lt;b&gt;setLastExecutionTime&lt;/b&gt;(lastExecutionTime: long&lt;span style=&quot;background-color: initial;&quot;&gt;): void&lt;/span&gt;&lt;/div&gt;&lt;div&gt;+ &lt;b&gt;isActive&amp;nbsp;&lt;/b&gt;(): boolean&lt;/div&gt;&lt;div&gt;+&lt;b&gt;&amp;nbsp;activate&lt;/b&gt;(): void&lt;/div&gt;&lt;div&gt;+&lt;b&gt; deactivate&lt;/b&gt;(): void&lt;/div&gt;&lt;div&gt;+&amp;nbsp;&lt;b&gt;getRuleName&lt;/b&gt;(): String&lt;/div&gt;&lt;div&gt;+ &lt;b&gt;setRuleName&lt;/b&gt;(newName: String): void&lt;/div&gt;&lt;div&gt;+&amp;nbsp;&lt;b&gt;getTrigger&lt;/b&gt;(): Trigger&lt;/div&gt;&lt;div&gt;+ &lt;b&gt;getAction&lt;/b&gt;(): Action&lt;/div&gt;&lt;div&gt;+ &lt;b&gt;executeRule&lt;/b&gt;():&lt;/div&gt;" style="text;strokeColor=none;fillColor=none;align=left;verticalAlign=top;spacingLeft=4;spacingRight=4;overflow=hidden;rotatable=0;points=[[0,0.5],[1,0.5]];portConstraint=eastwest;whiteSpace=wrap;html=1;labelBackgroundColor=none;" parent="OS-Ou4QBS4Z1JC2cFNdL-6" vertex="1">
          <mxGeometry y="203" width="493" height="283" as="geometry" />
        </mxCell>
        <mxCell id="OS-Ou4QBS4Z1JC2cFNdL-11" value="RuleManager" style="swimlane;fontStyle=1;align=center;verticalAlign=top;childLayout=stackLayout;horizontal=1;startSize=26;horizontalStack=0;resizeParent=1;resizeParentMax=0;resizeLast=0;collapsible=1;marginBottom=0;whiteSpace=wrap;html=1;" parent="1" vertex="1">
          <mxGeometry x="1554" y="-128" width="305" height="325" as="geometry" />
        </mxCell>
        <mxCell id="OS-Ou4QBS4Z1JC2cFNdL-12" value="- &lt;b&gt;istance&lt;/b&gt;: RuleManager&lt;br&gt;- &lt;b&gt;ruleList&lt;/b&gt;: List&amp;lt;Rule&amp;gt;&lt;br&gt;-&amp;nbsp;&lt;b&gt;scheduler:&lt;/b&gt;&amp;nbsp;ScheduledExecutorService&lt;br&gt;-&amp;nbsp;&lt;b&gt;ruleFileManager&lt;/b&gt;:&amp;nbsp;RuleFileManager&lt;br&gt;- &lt;b&gt;executorService&lt;/b&gt;:&amp;nbsp;ExecutorService" style="text;strokeColor=none;fillColor=none;align=left;verticalAlign=top;spacingLeft=4;spacingRight=4;overflow=hidden;rotatable=0;points=[[0,0.5],[1,0.5]];portConstraint=eastwest;whiteSpace=wrap;html=1;" parent="OS-Ou4QBS4Z1JC2cFNdL-11" vertex="1">
          <mxGeometry y="26" width="305" height="88" as="geometry" />
        </mxCell>
        <mxCell id="OS-Ou4QBS4Z1JC2cFNdL-13" value="" style="line;strokeWidth=1;fillColor=none;align=left;verticalAlign=middle;spacingTop=-1;spacingLeft=3;spacingRight=3;rotatable=0;labelPosition=right;points=[];portConstraint=eastwest;strokeColor=inherit;" parent="OS-Ou4QBS4Z1JC2cFNdL-11" vertex="1">
          <mxGeometry y="114" width="305" height="8" as="geometry" />
        </mxCell>
        <mxCell id="OS-Ou4QBS4Z1JC2cFNdL-14" value="&lt;div&gt;+ &lt;b&gt;getInstance()&lt;/b&gt;: RuleManager&lt;/div&gt;&lt;div&gt;+&lt;b&gt; addRule&lt;/b&gt;(rule: Rule): void&lt;/div&gt;&lt;div&gt;+ &lt;b&gt;removeRule&lt;/b&gt;(rule: Rule, scanner: Scanner): void&lt;/div&gt;&lt;div&gt;-&amp;nbsp;&lt;b&gt;confirmRemoval&lt;/b&gt;(scanner: Scanner): boolean&lt;/div&gt;&lt;div&gt;-&amp;nbsp;&lt;b&gt;evaluateRules&lt;/b&gt;(): void&lt;/div&gt;&lt;div&gt;- &lt;b&gt;shouldExecuteRule&lt;/b&gt;(rule: Rule): boolean&lt;br&gt;&lt;/div&gt;&lt;div&gt;- &lt;b&gt;executeRule&lt;/b&gt;(rule: Rule): void&lt;br&gt;&lt;/div&gt;&lt;div&gt;- &lt;b&gt;scheduleRuleExecution&lt;/b&gt;(rule: Rule): void&lt;br&gt;&lt;/div&gt;&lt;div&gt;-&amp;nbsp;&lt;b&gt;scheduleRuleEvaluation&lt;/b&gt;(): void&lt;/div&gt;&lt;div&gt;+&amp;nbsp;&lt;b&gt;saveRulesToFile&lt;/b&gt;() : void&lt;/div&gt;&lt;div&gt;+&amp;nbsp;&lt;b&gt;loadRulesFromFile&lt;/b&gt;(): void&lt;/div&gt;&lt;div&gt;+&lt;b&gt;shutdown&lt;/b&gt;(): void&lt;/div&gt;&lt;div&gt;+ &lt;b&gt;getRuleList&lt;/b&gt;(): List&amp;lt;Rule&amp;gt;&lt;/div&gt;" style="text;strokeColor=none;fillColor=none;align=left;verticalAlign=top;spacingLeft=4;spacingRight=4;overflow=hidden;rotatable=0;points=[[0,0.5],[1,0.5]];portConstraint=eastwest;whiteSpace=wrap;html=1;" parent="OS-Ou4QBS4Z1JC2cFNdL-11" vertex="1">
          <mxGeometry y="122" width="305" height="203" as="geometry" />
        </mxCell>
        <mxCell id="1EWZOVvbNaI_VQ29JEXc-3" value="&lt;p style=&quot;margin:0px;margin-top:4px;text-align:center;&quot;&gt;&lt;i&gt;&amp;lt;&amp;lt;Interface&amp;gt;&amp;gt;&lt;/i&gt;&lt;br&gt;&lt;b&gt;Trigger&lt;/b&gt;&lt;/p&gt;&lt;hr size=&quot;1&quot;&gt;&lt;p style=&quot;margin:0px;margin-left:4px;&quot;&gt;+ &lt;b&gt;checkTrigger&lt;/b&gt;():boolean&lt;br style=&quot;border-color: var(--border-color);&quot;&gt;&lt;/p&gt;&lt;hr size=&quot;1&quot;&gt;&lt;p style=&quot;margin:0px;margin-left:4px;&quot;&gt;&lt;br&gt;&lt;/p&gt;" style="verticalAlign=top;align=left;overflow=fill;fontSize=12;fontFamily=Helvetica;html=1;whiteSpace=wrap;" parent="1" vertex="1">
          <mxGeometry x="558" y="400" width="190" height="68" as="geometry" />
        </mxCell>
        <mxCell id="1EWZOVvbNaI_VQ29JEXc-9" value="&lt;p style=&quot;margin:0px;margin-top:4px;text-align:center;&quot;&gt;&lt;b&gt;HourOfDayTrigger&lt;/b&gt;&lt;/p&gt;&lt;hr size=&quot;1&quot;&gt;&lt;p style=&quot;margin:0px;margin-left:4px;&quot;&gt;- &lt;b&gt;targetTime&lt;/b&gt;:LocalTime&lt;/p&gt;&lt;hr size=&quot;1&quot;&gt;&lt;p style=&quot;margin:0px;margin-left:4px;&quot;&gt;+&amp;nbsp;&lt;b&gt;HourOfDayTrigger&lt;/b&gt;(hour: int, min: int)&lt;br&gt;+ &lt;b&gt;checkTrigger&lt;/b&gt;():boolean&lt;br&gt;&lt;/p&gt;" style="verticalAlign=top;align=left;overflow=fill;fontSize=12;fontFamily=Helvetica;html=1;whiteSpace=wrap;" parent="1" vertex="1">
          <mxGeometry x="497" y="-11" width="224" height="90" as="geometry" />
        </mxCell>
        <mxCell id="1EWZOVvbNaI_VQ29JEXc-11" value="&lt;p style=&quot;margin:0px;margin-top:4px;text-align:center;&quot;&gt;&lt;b&gt;DayOfWeekTrigger&lt;/b&gt;&lt;/p&gt;&lt;hr size=&quot;1&quot;&gt;&lt;p style=&quot;margin:0px;margin-left:4px;&quot;&gt;- &lt;b&gt;targetDayOfWeek&lt;/b&gt;: String&lt;/p&gt;&lt;hr size=&quot;1&quot;&gt;&lt;p style=&quot;margin:0px;margin-left:4px;&quot;&gt;+&amp;nbsp;&lt;b style=&quot;border-color: var(--border-color); text-align: center;&quot;&gt;DayOfWeekTrigger&lt;/b&gt;&lt;span style=&quot;background-color: initial;&quot;&gt;(targetDayOfWeek: String)&lt;/span&gt;&lt;/p&gt;&lt;div&gt;&amp;nbsp;+ &lt;b&gt;checkTrigger&lt;/b&gt;():boolean&lt;br&gt;&lt;/div&gt;" style="verticalAlign=top;align=left;overflow=fill;fontSize=12;fontFamily=Helvetica;html=1;whiteSpace=wrap;" parent="1" vertex="1">
          <mxGeometry x="584" y="192" width="265" height="104" as="geometry" />
        </mxCell>
        <mxCell id="1EWZOVvbNaI_VQ29JEXc-13" value="&lt;p style=&quot;margin:0px;margin-top:4px;text-align:center;&quot;&gt;&lt;b&gt;DayOfMonthTrigger&lt;/b&gt;&lt;/p&gt;&lt;hr size=&quot;1&quot;&gt;&lt;p style=&quot;margin:0px;margin-left:4px;&quot;&gt;- &lt;b&gt;targetDayOfMonth&lt;/b&gt;: int&lt;/p&gt;&lt;hr size=&quot;1&quot;&gt;&lt;p style=&quot;margin:0px;margin-left:4px;&quot;&gt;+&amp;nbsp;&lt;b style=&quot;border-color: var(--border-color); text-align: center;&quot;&gt;DayOfMonthTrigger&lt;/b&gt;&lt;span style=&quot;background-color: initial;&quot;&gt;(targetDayOfMont: int)&lt;/span&gt;&lt;/p&gt;&lt;div&gt;&amp;nbsp;+ &lt;b&gt;checkTrigger&lt;/b&gt;():boolean&lt;br&gt;&lt;/div&gt;" style="verticalAlign=top;align=left;overflow=fill;fontSize=12;fontFamily=Helvetica;html=1;whiteSpace=wrap;" parent="1" vertex="1">
          <mxGeometry x="829" y="438" width="254" height="104" as="geometry" />
        </mxCell>
        <mxCell id="1EWZOVvbNaI_VQ29JEXc-14" value="&lt;p style=&quot;margin:0px;margin-top:4px;text-align:center;&quot;&gt;&lt;b&gt;DateTrigger&lt;/b&gt;&lt;/p&gt;&lt;hr size=&quot;1&quot;&gt;&lt;p style=&quot;margin:0px;margin-left:4px;&quot;&gt;- &lt;b&gt;targetDate&lt;/b&gt;: String&lt;/p&gt;&lt;hr size=&quot;1&quot;&gt;&lt;p style=&quot;margin:0px;margin-left:4px;&quot;&gt;+&lt;b style=&quot;border-color: var(--border-color); text-align: center;&quot;&gt;DateTrigger&lt;/b&gt;&lt;span style=&quot;background-color: initial;&quot;&gt;(targetDate: String)&lt;/span&gt;&lt;/p&gt;&lt;div&gt;&amp;nbsp;+ &lt;b&gt;checkTrigger&lt;/b&gt;():boolean&lt;br&gt;&lt;/div&gt;" style="verticalAlign=top;align=left;overflow=fill;fontSize=12;fontFamily=Helvetica;html=1;whiteSpace=wrap;" parent="1" vertex="1">
          <mxGeometry x="33" y="147" width="224" height="104" as="geometry" />
        </mxCell>
        <mxCell id="1EWZOVvbNaI_VQ29JEXc-16" value="&lt;p style=&quot;margin:0px;margin-top:4px;text-align:center;&quot;&gt;&lt;b&gt;FileDirectoryTrigger&lt;/b&gt;&lt;/p&gt;&lt;hr size=&quot;1&quot;&gt;&lt;p style=&quot;margin:0px;margin-left:4px;&quot;&gt;- &lt;b&gt;targetFileName&lt;/b&gt;: String&lt;/p&gt;&lt;p style=&quot;margin:0px;margin-left:4px;&quot;&gt;- &lt;b&gt;targetDirectory&lt;/b&gt;: String&lt;/p&gt;&lt;hr size=&quot;1&quot;&gt;&lt;p style=&quot;margin:0px;margin-left:4px;&quot;&gt;+&amp;nbsp;&lt;b style=&quot;border-color: var(--border-color); text-align: center;&quot;&gt;FileTrigger&lt;/b&gt;&lt;span style=&quot;background-color: initial;&quot;&gt;(targetFileName: String, directory: String)&lt;/span&gt;&lt;/p&gt;&lt;div&gt;&amp;nbsp;+&amp;nbsp;&lt;b&gt;checkTrigger&lt;/b&gt;():boolean&lt;br&gt;&lt;/div&gt;" style="verticalAlign=top;align=left;overflow=fill;fontSize=12;fontFamily=Helvetica;html=1;whiteSpace=wrap;" parent="1" vertex="1">
          <mxGeometry x="286" y="783" width="298" height="104" as="geometry" />
        </mxCell>
        <mxCell id="1EWZOVvbNaI_VQ29JEXc-17" value="&lt;p style=&quot;margin:0px;margin-top:4px;text-align:center;&quot;&gt;&lt;b&gt;FileSizeTrigger&lt;/b&gt;&lt;/p&gt;&lt;hr size=&quot;1&quot;&gt;&lt;p style=&quot;margin:0px;margin-left:4px;&quot;&gt;-&amp;nbsp;&lt;b&gt;targetFilePath&lt;/b&gt;: String&lt;/p&gt;&lt;p style=&quot;margin:0px;margin-left:4px;&quot;&gt;-&amp;nbsp;&lt;b&gt;targetSize&lt;/b&gt;: long&lt;/p&gt;&lt;hr size=&quot;1&quot;&gt;&lt;p style=&quot;margin:0px;margin-left:4px;&quot;&gt;+&amp;nbsp;&lt;b style=&quot;border-color: var(--border-color); text-align: center;&quot;&gt;FileSizeTrigger&lt;/b&gt;&lt;span style=&quot;background-color: initial;&quot;&gt;(targetFillePath: String, targetSize: long)&lt;/span&gt;&lt;/p&gt;&lt;div&gt;&amp;nbsp;+ &lt;b&gt;checkTrigger&lt;/b&gt;():boolean&lt;br&gt;&lt;/div&gt;" style="verticalAlign=top;align=left;overflow=fill;fontSize=12;fontFamily=Helvetica;html=1;whiteSpace=wrap;" parent="1" vertex="1">
          <mxGeometry x="16.25" y="300" width="328.75" height="104" as="geometry" />
        </mxCell>
        <mxCell id="1EWZOVvbNaI_VQ29JEXc-18" value="&lt;p style=&quot;margin:0px;margin-top:4px;text-align:center;&quot;&gt;&lt;b&gt;ExternalProgrammTrigger&lt;/b&gt;&lt;/p&gt;&lt;hr size=&quot;1&quot;&gt;&lt;p style=&quot;margin:0px;margin-left:4px;&quot;&gt;- &lt;b&gt;targetCommandLine&lt;/b&gt;: String&lt;/p&gt;&lt;p style=&quot;margin:0px;margin-left:4px;&quot;&gt;- &lt;b&gt;targetExitValue&lt;/b&gt;: int&lt;/p&gt;&lt;hr size=&quot;1&quot;&gt;&lt;p style=&quot;margin:0px;margin-left:4px;&quot;&gt;+&amp;nbsp;&lt;b style=&quot;border-color: var(--border-color); text-align: center;&quot;&gt;ExternalProgrammTrigger&amp;nbsp;&lt;/b&gt;&lt;span style=&quot;background-color: initial;&quot;&gt;(targetCommandLine: String, targetExitValue: long)&lt;/span&gt;&lt;/p&gt;&lt;div&gt;&amp;nbsp;+ &lt;b&gt;checkTrigger&lt;/b&gt;():boolean&lt;br&gt;&lt;/div&gt;" style="verticalAlign=top;align=left;overflow=fill;fontSize=12;fontFamily=Helvetica;html=1;whiteSpace=wrap;" parent="1" vertex="1">
          <mxGeometry x="21" y="-19" width="455" height="118" as="geometry" />
        </mxCell>
        <mxCell id="1EWZOVvbNaI_VQ29JEXc-19" value="&lt;p style=&quot;margin:0px;margin-top:4px;text-align:center;&quot;&gt;&lt;i&gt;&amp;lt;&amp;lt;Interface&amp;gt;&amp;gt;&lt;/i&gt;&lt;br&gt;&lt;b&gt;Action&lt;/b&gt;&lt;/p&gt;&lt;hr size=&quot;1&quot;&gt;&lt;p style=&quot;margin:0px;margin-left:4px;&quot;&gt;+ &lt;b&gt;execute&lt;/b&gt;(): Void&lt;br&gt;&lt;/p&gt;&lt;hr size=&quot;1&quot;&gt;&lt;p style=&quot;margin:0px;margin-left:4px;&quot;&gt;&lt;br&gt;&lt;/p&gt;" style="verticalAlign=top;align=left;overflow=fill;fontSize=12;fontFamily=Helvetica;html=1;whiteSpace=wrap;" parent="1" vertex="1">
          <mxGeometry x="1457" y="438" width="190" height="68" as="geometry" />
        </mxCell>
        <mxCell id="1EWZOVvbNaI_VQ29JEXc-21" value="&lt;p style=&quot;margin:0px;margin-top:4px;text-align:center;&quot;&gt;&lt;b&gt;AudioAction&lt;/b&gt;&lt;/p&gt;&lt;hr size=&quot;1&quot;&gt;&lt;p style=&quot;margin:0px;margin-left:4px;&quot;&gt;- &lt;b&gt;fileAudioPath&lt;/b&gt;: String&lt;/p&gt;&lt;hr size=&quot;1&quot;&gt;&lt;p style=&quot;margin:0px;margin-left:4px;&quot;&gt;+ &lt;b&gt;AudioAction&lt;/b&gt;(String: fileAudioPath)&lt;br&gt;+&amp;nbsp; &lt;b&gt;execute&lt;/b&gt;(): void&lt;br&gt;&lt;/p&gt;" style="verticalAlign=top;align=left;overflow=fill;fontSize=12;fontFamily=Helvetica;html=1;whiteSpace=wrap;" parent="1" vertex="1">
          <mxGeometry x="1162" y="629" width="255" height="124" as="geometry" />
        </mxCell>
        <mxCell id="1EWZOVvbNaI_VQ29JEXc-22" value="&lt;p style=&quot;margin:0px;margin-top:4px;text-align:center;&quot;&gt;&lt;b&gt;DialogBoxAction&lt;/b&gt;&lt;/p&gt;&lt;hr size=&quot;1&quot;&gt;&lt;p style=&quot;margin:0px;margin-left:4px;&quot;&gt;- &lt;b&gt;message&lt;/b&gt;: String&lt;/p&gt;&lt;hr size=&quot;1&quot;&gt;&lt;p style=&quot;margin:0px;margin-left:4px;&quot;&gt;+&amp;nbsp;&lt;b&gt;DialogBoxAction&lt;/b&gt;(String message)&lt;/p&gt;&lt;p style=&quot;margin:0px;margin-left:4px;&quot;&gt;+&amp;nbsp;&amp;nbsp;&lt;b&gt;execute&lt;/b&gt;(): void&lt;br&gt;&lt;/p&gt;" style="verticalAlign=top;align=left;overflow=fill;fontSize=12;fontFamily=Helvetica;html=1;whiteSpace=wrap;" parent="1" vertex="1">
          <mxGeometry x="1943" y="751" width="403" height="124" as="geometry" />
        </mxCell>
        <mxCell id="1EWZOVvbNaI_VQ29JEXc-25" value="&lt;p style=&quot;margin:0px;margin-top:4px;text-align:center;&quot;&gt;&lt;b&gt;ExternalProgramAction&lt;/b&gt;&lt;/p&gt;&lt;hr size=&quot;1&quot;&gt;&lt;p style=&quot;margin:0px;margin-left:4px;&quot;&gt;- &lt;b&gt;command&lt;/b&gt;: String&lt;/p&gt;&lt;p style=&quot;margin:0px;margin-left:4px;&quot;&gt;- &lt;b&gt;programPath&lt;/b&gt;: String&lt;/p&gt;&lt;p style=&quot;margin:0px;margin-left:4px;&quot;&gt;- &lt;b&gt;commandLineArgs&lt;/b&gt;: String[]&lt;/p&gt;&lt;p style=&quot;margin:0px;margin-left:4px;&quot;&gt;-&amp;nbsp;&lt;b&gt;processBuilder&lt;/b&gt;:ProcessBuilder&lt;/p&gt;&lt;hr size=&quot;1&quot;&gt;&lt;p style=&quot;margin:0px;margin-left:4px;&quot;&gt;+ &lt;b&gt;ExternalProgramAction&lt;/b&gt;(command:String, programPath:String, commandLineArgs:String[])&lt;br&gt;+&amp;nbsp; &lt;b&gt;execute&lt;/b&gt;(): void&lt;br&gt;&lt;/p&gt;" style="verticalAlign=top;align=left;overflow=fill;fontSize=12;fontFamily=Helvetica;html=1;whiteSpace=wrap;" parent="1" vertex="1">
          <mxGeometry x="1430" y="248" width="535" height="155" as="geometry" />
        </mxCell>
        <mxCell id="1EWZOVvbNaI_VQ29JEXc-27" value="&lt;p style=&quot;margin:0px;margin-top:4px;text-align:center;&quot;&gt;&lt;b&gt;WriteStringOnFileAction&lt;/b&gt;&lt;/p&gt;&lt;hr size=&quot;1&quot;&gt;&lt;p style=&quot;margin:0px;margin-left:4px;&quot;&gt;- &lt;b&gt;stringToWrite&lt;/b&gt;: String&lt;/p&gt;&lt;p style=&quot;margin:0px;margin-left:4px;&quot;&gt;- &lt;b&gt;targetFilePath&lt;/b&gt;: String&lt;/p&gt;&lt;hr size=&quot;1&quot;&gt;&lt;p style=&quot;margin:0px;margin-left:4px;&quot;&gt;+&amp;nbsp;&lt;b style=&quot;text-align: center; background-color: initial;&quot;&gt;WriteStringOnFileAction&lt;/b&gt;&lt;span style=&quot;text-align: center; background-color: initial;&quot;&gt;(String stringToWrite, String targetFilePath)&lt;/span&gt;&lt;/p&gt;&lt;p style=&quot;margin:0px;margin-left:4px;&quot;&gt;+ &lt;b&gt;execute&lt;/b&gt;(): void&lt;br&gt;&lt;/p&gt;" style="verticalAlign=top;align=left;overflow=fill;fontSize=12;fontFamily=Helvetica;html=1;whiteSpace=wrap;" parent="1" vertex="1">
          <mxGeometry x="1991" y="340" width="435" height="116" as="geometry" />
        </mxCell>
        <mxCell id="1EWZOVvbNaI_VQ29JEXc-28" value="&lt;p style=&quot;margin:0px;margin-top:4px;text-align:center;&quot;&gt;&lt;b&gt;DeleteFIleAction&lt;/b&gt;&lt;/p&gt;&lt;hr size=&quot;1&quot;&gt;&lt;p style=&quot;margin:0px;margin-left:4px;&quot;&gt;-&lt;b&gt;file&lt;/b&gt;: File&lt;br&gt;&lt;/p&gt;&lt;hr size=&quot;1&quot;&gt;&lt;p style=&quot;margin:0px;margin-left:4px;&quot;&gt;+&amp;nbsp;&lt;b style=&quot;border-color: var(--border-color); text-align: center;&quot;&gt;DeleteFIleAction&lt;/b&gt;(targetFileName:String,&amp;nbsp;&lt;/p&gt;&lt;p style=&quot;margin:0px;margin-left:4px;&quot;&gt;+ &lt;b&gt;execute&lt;/b&gt;(): void&lt;br&gt;&lt;/p&gt;&lt;p style=&quot;margin:0px;margin-left:4px;&quot;&gt;+ &lt;b&gt;getFile&lt;/b&gt;(): File&lt;/p&gt;&lt;p style=&quot;margin:0px;margin-left:4px;&quot;&gt;+ &lt;b&gt;setFile&lt;/b&gt;(file : File): void&lt;/p&gt;" style="verticalAlign=top;align=left;overflow=fill;fontSize=12;fontFamily=Helvetica;html=1;whiteSpace=wrap;" parent="1" vertex="1">
          <mxGeometry x="1266" y="761" width="446" height="124" as="geometry" />
        </mxCell>
        <mxCell id="1EWZOVvbNaI_VQ29JEXc-29" value="&lt;p style=&quot;margin:0px;margin-top:4px;text-align:center;&quot;&gt;&lt;b&gt;MoveCopyFileAction&lt;/b&gt;&lt;/p&gt;&lt;hr size=&quot;1&quot;&gt;&lt;p style=&quot;margin:0px;margin-left:4px;&quot;&gt;- &lt;b&gt;operation&lt;/b&gt;:OperationFileType&lt;br&gt;- &lt;b&gt;targetdirectory&lt;/b&gt;: String&lt;/p&gt;&lt;p style=&quot;margin:0px;margin-left:4px;&quot;&gt;- &lt;b&gt;targetFileName&lt;/b&gt;: String&lt;br&gt;&lt;/p&gt;&lt;p style=&quot;margin:0px;margin-left:4px;&quot;&gt;- &lt;b&gt;destinationDirectory&lt;/b&gt;: String&lt;/p&gt;&lt;p style=&quot;margin:0px;margin-left:4px;&quot;&gt;&lt;br&gt;&lt;/p&gt;&lt;hr size=&quot;1&quot;&gt;&lt;p style=&quot;margin:0px;margin-left:4px;&quot;&gt;+&amp;nbsp;&lt;b style=&quot;border-color: var(--border-color); text-align: center;&quot;&gt;MoveCopyFileActionAction&amp;nbsp;&lt;/b&gt;&lt;span style=&quot;background-color: initial;&quot;&gt;(OperationFileType: operation, String: targetFileName, String: targetDirectory, String: destinationDirectory)&lt;/span&gt;&lt;/p&gt;&lt;div&gt;&amp;nbsp;+ &lt;b&gt;execute&lt;/b&gt;(): void&lt;br&gt;&lt;/div&gt;" style="verticalAlign=top;align=left;overflow=fill;fontSize=12;fontFamily=Helvetica;html=1;whiteSpace=wrap;" parent="1" vertex="1">
          <mxGeometry x="1579" y="892" width="750" height="160" as="geometry" />
        </mxCell>
        <mxCell id="XiT6eA-BP94YaVYVDS5J-1" value="&lt;p style=&quot;margin:0px;margin-top:4px;text-align:center;&quot;&gt;&lt;b&gt;MapCounter&lt;/b&gt;&lt;/p&gt;&lt;hr size=&quot;1&quot;&gt;&lt;p style=&quot;margin:0px;margin-left:4px;&quot;&gt;- &lt;b&gt;instance&lt;/b&gt;: MapCounter&lt;br&gt;-&amp;nbsp;&lt;b&gt;counters&lt;/b&gt;: Map&amp;lt;String, Integer&amp;gt;&lt;br&gt;&lt;/p&gt;&lt;hr size=&quot;1&quot;&gt;&lt;p style=&quot;margin:0px;margin-left:4px;&quot;&gt;-&amp;nbsp;&lt;b&gt;MapCounter&lt;/b&gt;()&lt;br&gt;&lt;/p&gt;&lt;p style=&quot;margin:0px;margin-left:4px;&quot;&gt;+&amp;nbsp;&lt;b style=&quot;border-color: var(--border-color);&quot;&gt;getInstance&lt;/b&gt;(): MapCounter&lt;br&gt;&lt;/p&gt;&lt;p style=&quot;margin:0px;margin-left:4px;&quot;&gt;+ &lt;b&gt;createCounter&lt;/b&gt;(name: String, initialValue: int): void&lt;/p&gt;&lt;p style=&quot;margin:0px;margin-left:4px;&quot;&gt;+ &lt;b&gt;getCounterValue&lt;/b&gt;(name: String): int&lt;/p&gt;&lt;p style=&quot;margin:0px;margin-left:4px;&quot;&gt;+&amp;nbsp;&lt;b&gt;setCounterValue&lt;/b&gt;(name: String, value: int): void&lt;/p&gt;&lt;p style=&quot;margin:0px;margin-left:4px;&quot;&gt;&lt;span style=&quot;background-color: initial;&quot;&gt;+&amp;nbsp;&lt;/span&gt;&lt;b style=&quot;background-color: initial; border-color: var(--border-color);&quot;&gt;substituteVariables&lt;/b&gt;&lt;span style=&quot;background-color: initial;&quot;&gt;(String inputString): String&lt;/span&gt;&lt;br&gt;&lt;/p&gt;&lt;p style=&quot;margin:0px;margin-left:4px;&quot;&gt;&lt;br&gt;&lt;/p&gt;&lt;p style=&quot;margin:0px;margin-left:4px;&quot;&gt;&lt;br&gt;&lt;/p&gt;&lt;p style=&quot;margin:0px;margin-left:4px;&quot;&gt;&amp;nbsp;&lt;br&gt;&lt;br&gt;&lt;/p&gt;" style="verticalAlign=top;align=left;overflow=fill;fontSize=12;fontFamily=Helvetica;html=1;whiteSpace=wrap;" parent="1" vertex="1">
          <mxGeometry x="360" y="-364" width="476" height="170" as="geometry" />
        </mxCell>
        <mxCell id="XiT6eA-BP94YaVYVDS5J-2" value="&lt;p style=&quot;margin:0px;margin-top:4px;text-align:center;&quot;&gt;&lt;b&gt;TriggerCounter&lt;/b&gt;&lt;/p&gt;&lt;hr size=&quot;1&quot;&gt;&lt;p style=&quot;margin:0px;margin-left:4px;&quot;&gt;- &lt;b&gt;operation&lt;/b&gt;: OperationType&lt;br&gt;&lt;span style=&quot;background-color: initial;&quot;&gt;- &lt;b&gt;counterName1&lt;/b&gt;: String&lt;/span&gt;&lt;/p&gt;&lt;p style=&quot;margin:0px;margin-left:4px;&quot;&gt;- &lt;b&gt;counterName2&lt;/b&gt;: String&lt;/p&gt;&lt;p style=&quot;margin:0px;margin-left:4px;&quot;&gt;- &lt;b&gt;valueNumber&lt;/b&gt;: int&lt;/p&gt;&lt;hr size=&quot;1&quot;&gt;&lt;p style=&quot;margin:0px;margin-left:4px;&quot;&gt;+ &lt;b&gt;TriggerCounter&lt;/b&gt;(String counterName1, OperationType operation, String counterName2)&lt;/p&gt;&lt;p style=&quot;margin:0px;margin-left:4px;&quot;&gt;+ &lt;b&gt;TriggerCounter&lt;/b&gt;(String counterName1, OperationType operation, int valueNumber)&lt;/p&gt;&lt;p style=&quot;margin:0px;margin-left:4px;&quot;&gt;+ &lt;b&gt;checkTrigger&lt;/b&gt;(): boolean&lt;/p&gt;" style="verticalAlign=top;align=left;overflow=fill;fontSize=12;fontFamily=Helvetica;html=1;whiteSpace=wrap;" parent="1" vertex="1">
          <mxGeometry x="598" y="614" width="485" height="190" as="geometry" />
        </mxCell>
        <mxCell id="XiT6eA-BP94YaVYVDS5J-4" value="&lt;p style=&quot;margin:0px;margin-top:4px;text-align:center;&quot;&gt;&lt;i&gt;&amp;lt;&amp;lt;Enumeration&amp;gt;&amp;gt;&lt;/i&gt;&lt;br&gt;&lt;b&gt;OperationType&lt;/b&gt;&lt;/p&gt;&lt;hr size=&quot;1&quot;&gt;&lt;div style=&quot;height:2px;&quot;&gt;&lt;b&gt;&amp;nbsp;EQUALTO&lt;br&gt;&amp;nbsp;LESSTHAN&lt;br&gt;&amp;nbsp;GREATERTHAN&lt;/b&gt;&lt;/div&gt;" style="verticalAlign=top;align=left;overflow=fill;fontSize=12;fontFamily=Helvetica;html=1;whiteSpace=wrap;" parent="1" vertex="1">
          <mxGeometry x="1881" y="-287" width="140" height="98" as="geometry" />
        </mxCell>
        <mxCell id="XiT6eA-BP94YaVYVDS5J-5" value="&lt;p style=&quot;margin:0px;margin-top:4px;text-align:center;&quot;&gt;&lt;i&gt;&amp;lt;&amp;lt;Enumeration&amp;gt;&amp;gt;&lt;/i&gt;&lt;br&gt;&lt;b&gt;OperationFileType&lt;/b&gt;&lt;/p&gt;&lt;hr size=&quot;1&quot;&gt;&lt;div style=&quot;height:2px;&quot;&gt;&lt;b&gt;&amp;nbsp;MOVE&lt;br&gt;&amp;nbsp;COPY&lt;br&gt;&lt;br&gt;&lt;/b&gt;&lt;/div&gt;" style="verticalAlign=top;align=left;overflow=fill;fontSize=12;fontFamily=Helvetica;html=1;whiteSpace=wrap;" parent="1" vertex="1">
          <mxGeometry x="2062" y="-187" width="140" height="81" as="geometry" />
        </mxCell>
        <mxCell id="XiT6eA-BP94YaVYVDS5J-7" value="&lt;p style=&quot;margin:0px;margin-top:4px;text-align:center;&quot;&gt;&lt;b&gt;CounterAction&lt;/b&gt;&lt;/p&gt;&lt;hr size=&quot;1&quot;&gt;&lt;p style=&quot;margin:0px;margin-left:4px;&quot;&gt;- &lt;b&gt;operation&lt;/b&gt;: CounterActionType&lt;/p&gt;&lt;p style=&quot;margin:0px;margin-left:4px;&quot;&gt;- &lt;b&gt;valueNumber&lt;/b&gt;: int&lt;/p&gt;&lt;p style=&quot;margin:0px;margin-left:4px;&quot;&gt;- &lt;b&gt;counterName1&lt;/b&gt;: String&lt;/p&gt;&lt;p style=&quot;margin:0px;margin-left:4px;&quot;&gt;- &lt;b&gt;counterName2&lt;/b&gt;: String&lt;/p&gt;&lt;p style=&quot;border-color: var(--border-color); margin: 0px 0px 0px 4px;&quot;&gt;&lt;br style=&quot;border-color: var(--border-color);&quot;&gt;&lt;/p&gt;&lt;hr size=&quot;1&quot;&gt;&lt;p style=&quot;margin:0px;margin-left:4px;&quot;&gt;+ &lt;b&gt;CounterAction&lt;/b&gt;(CounterActionType operation, int valueNumber, String counterName1)&lt;/p&gt;&lt;p style=&quot;margin:0px;margin-left:4px;&quot;&gt;+ &lt;b&gt;CounterAction&lt;/b&gt;(String counterName1, String counterName2)&lt;/p&gt;&lt;div&gt;&amp;nbsp;+ &lt;b&gt;execute&lt;/b&gt;(): void&lt;br&gt;&lt;/div&gt;" style="verticalAlign=top;align=left;overflow=fill;fontSize=12;fontFamily=Helvetica;html=1;whiteSpace=wrap;" parent="1" vertex="1">
          <mxGeometry x="2008" y="492" width="484" height="184" as="geometry" />
        </mxCell>
        <mxCell id="XiT6eA-BP94YaVYVDS5J-9" value="&lt;p style=&quot;margin:0px;margin-top:4px;text-align:center;&quot;&gt;&lt;i&gt;&amp;lt;&amp;lt;Enumeration&amp;gt;&amp;gt;&lt;/i&gt;&lt;br&gt;&lt;b&gt;CounterActionType&lt;/b&gt;&lt;/p&gt;&lt;hr size=&quot;1&quot;&gt;&lt;div style=&quot;height:2px;&quot;&gt;&lt;b&gt;&amp;nbsp;SET&lt;br&gt;&amp;nbsp;ADD&lt;br&gt;&lt;br&gt;&lt;/b&gt;&lt;/div&gt;" style="verticalAlign=top;align=left;overflow=fill;fontSize=12;fontFamily=Helvetica;html=1;whiteSpace=wrap;" parent="1" vertex="1">
          <mxGeometry x="2058" y="-291" width="140" height="81" as="geometry" />
        </mxCell>
        <mxCell id="qFEmB10UOR8r2m2RjTvE-20" value="" style="endArrow=open;endFill=1;endSize=12;html=1;rounded=0;entryX=0;entryY=0.102;entryDx=0;entryDy=0;entryPerimeter=0;exitX=0.996;exitY=0.661;exitDx=0;exitDy=0;exitPerimeter=0;" parent="1" source="OS-Ou4QBS4Z1JC2cFNdL-7" target="OS-Ou4QBS4Z1JC2cFNdL-12" edge="1">
          <mxGeometry width="160" relative="1" as="geometry">
            <mxPoint x="1343" y="-71" as="sourcePoint" />
            <mxPoint x="1397" y="-69" as="targetPoint" />
          </mxGeometry>
        </mxCell>
        <mxCell id="qFEmB10UOR8r2m2RjTvE-23" value="" style="endArrow=open;endFill=1;endSize=12;html=1;rounded=0;entryX=1;entryY=0;entryDx=0;entryDy=0;exitX=0.401;exitY=1.001;exitDx=0;exitDy=0;exitPerimeter=0;" parent="1" source="OS-Ou4QBS4Z1JC2cFNdL-9" target="1EWZOVvbNaI_VQ29JEXc-3" edge="1">
          <mxGeometry width="160" relative="1" as="geometry">
            <mxPoint x="1073" y="295" as="sourcePoint" />
            <mxPoint x="1177" y="294" as="targetPoint" />
          </mxGeometry>
        </mxCell>
        <mxCell id="qFEmB10UOR8r2m2RjTvE-27" value="" style="endArrow=block;dashed=1;endFill=0;endSize=12;html=1;rounded=0;entryX=0.881;entryY=1.021;entryDx=0;entryDy=0;entryPerimeter=0;" parent="1" target="1EWZOVvbNaI_VQ29JEXc-3" edge="1">
          <mxGeometry width="160" relative="1" as="geometry">
            <mxPoint x="814" y="608" as="sourcePoint" />
            <mxPoint x="912" y="478" as="targetPoint" />
          </mxGeometry>
        </mxCell>
        <mxCell id="qFEmB10UOR8r2m2RjTvE-28" value="" style="endArrow=block;dashed=1;endFill=0;endSize=12;html=1;rounded=0;entryX=1;entryY=0.5;entryDx=0;entryDy=0;exitX=0.006;exitY=0.192;exitDx=0;exitDy=0;exitPerimeter=0;" parent="1" source="1EWZOVvbNaI_VQ29JEXc-13" target="1EWZOVvbNaI_VQ29JEXc-3" edge="1">
          <mxGeometry width="160" relative="1" as="geometry">
            <mxPoint x="863" y="476" as="sourcePoint" />
            <mxPoint x="758" y="484" as="targetPoint" />
          </mxGeometry>
        </mxCell>
        <mxCell id="qFEmB10UOR8r2m2RjTvE-29" value="" style="endArrow=block;dashed=1;endFill=0;endSize=12;html=1;rounded=0;entryX=0.455;entryY=1.005;entryDx=0;entryDy=0;entryPerimeter=0;exitX=0.598;exitY=-0.003;exitDx=0;exitDy=0;exitPerimeter=0;" parent="1" source="1EWZOVvbNaI_VQ29JEXc-16" target="1EWZOVvbNaI_VQ29JEXc-3" edge="1">
          <mxGeometry width="160" relative="1" as="geometry">
            <mxPoint x="385" y="603" as="sourcePoint" />
            <mxPoint x="545" y="603" as="targetPoint" />
          </mxGeometry>
        </mxCell>
        <mxCell id="qFEmB10UOR8r2m2RjTvE-31" value="" style="endArrow=block;dashed=1;endFill=0;endSize=12;html=1;rounded=0;entryX=0.002;entryY=0.64;entryDx=0;entryDy=0;entryPerimeter=0;exitX=1.008;exitY=0.624;exitDx=0;exitDy=0;exitPerimeter=0;" parent="1" source="1EWZOVvbNaI_VQ29JEXc-17" target="1EWZOVvbNaI_VQ29JEXc-3" edge="1">
          <mxGeometry width="160" relative="1" as="geometry">
            <mxPoint x="257" y="393" as="sourcePoint" />
            <mxPoint x="556" y="426" as="targetPoint" />
          </mxGeometry>
        </mxCell>
        <mxCell id="qFEmB10UOR8r2m2RjTvE-32" value="" style="endArrow=block;dashed=1;endFill=0;endSize=12;html=1;rounded=0;exitX=0.997;exitY=0.383;exitDx=0;exitDy=0;exitPerimeter=0;" parent="1" source="1EWZOVvbNaI_VQ29JEXc-14" edge="1">
          <mxGeometry width="160" relative="1" as="geometry">
            <mxPoint x="212" y="240" as="sourcePoint" />
            <mxPoint x="554" y="411" as="targetPoint" />
          </mxGeometry>
        </mxCell>
        <mxCell id="qFEmB10UOR8r2m2RjTvE-33" value="" style="endArrow=block;dashed=1;endFill=0;endSize=12;html=1;rounded=0;entryX=0.125;entryY=0.017;entryDx=0;entryDy=0;entryPerimeter=0;" parent="1" target="1EWZOVvbNaI_VQ29JEXc-3" edge="1">
          <mxGeometry width="160" relative="1" as="geometry">
            <mxPoint x="252" y="99" as="sourcePoint" />
            <mxPoint x="577" y="399" as="targetPoint" />
          </mxGeometry>
        </mxCell>
        <mxCell id="qFEmB10UOR8r2m2RjTvE-34" value="" style="endArrow=block;dashed=1;endFill=0;endSize=12;html=1;rounded=0;exitX=0.431;exitY=1.063;exitDx=0;exitDy=0;exitPerimeter=0;entryX=0.837;entryY=0;entryDx=0;entryDy=0;entryPerimeter=0;" parent="1" source="1EWZOVvbNaI_VQ29JEXc-11" target="1EWZOVvbNaI_VQ29JEXc-3" edge="1">
          <mxGeometry width="160" relative="1" as="geometry">
            <mxPoint x="621" y="380" as="sourcePoint" />
            <mxPoint x="781" y="380" as="targetPoint" />
          </mxGeometry>
        </mxCell>
        <mxCell id="qFEmB10UOR8r2m2RjTvE-35" value="" style="endArrow=block;dashed=1;endFill=0;endSize=12;html=1;rounded=0;entryX=0.354;entryY=-0.017;entryDx=0;entryDy=0;entryPerimeter=0;exitX=0.132;exitY=0.998;exitDx=0;exitDy=0;exitPerimeter=0;" parent="1" source="1EWZOVvbNaI_VQ29JEXc-9" target="1EWZOVvbNaI_VQ29JEXc-3" edge="1">
          <mxGeometry width="160" relative="1" as="geometry">
            <mxPoint x="458" y="177" as="sourcePoint" />
            <mxPoint x="618" y="177" as="targetPoint" />
          </mxGeometry>
        </mxCell>
        <mxCell id="qFEmB10UOR8r2m2RjTvE-37" value="" style="endArrow=block;dashed=1;endFill=0;endSize=12;html=1;rounded=0;entryX=0;entryY=0.75;entryDx=0;entryDy=0;" parent="1" source="1EWZOVvbNaI_VQ29JEXc-21" target="1EWZOVvbNaI_VQ29JEXc-19" edge="1">
          <mxGeometry width="160" relative="1" as="geometry">
            <mxPoint x="1328" y="546" as="sourcePoint" />
            <mxPoint x="1488" y="546" as="targetPoint" />
          </mxGeometry>
        </mxCell>
        <mxCell id="qFEmB10UOR8r2m2RjTvE-38" value="" style="endArrow=block;dashed=1;endFill=0;endSize=12;html=1;rounded=0;entryX=0.25;entryY=1;entryDx=0;entryDy=0;exitX=0.549;exitY=0.02;exitDx=0;exitDy=0;exitPerimeter=0;" parent="1" source="1EWZOVvbNaI_VQ29JEXc-28" target="1EWZOVvbNaI_VQ29JEXc-19" edge="1">
          <mxGeometry width="160" relative="1" as="geometry">
            <mxPoint x="1451" y="746" as="sourcePoint" />
            <mxPoint x="1609" y="578" as="targetPoint" />
          </mxGeometry>
        </mxCell>
        <mxCell id="qFEmB10UOR8r2m2RjTvE-39" value="" style="endArrow=block;dashed=1;endFill=0;endSize=12;html=1;rounded=0;exitX=0.418;exitY=0;exitDx=0;exitDy=0;exitPerimeter=0;entryX=0.708;entryY=1.006;entryDx=0;entryDy=0;entryPerimeter=0;" parent="1" source="1EWZOVvbNaI_VQ29JEXc-22" target="1EWZOVvbNaI_VQ29JEXc-19" edge="1">
          <mxGeometry width="160" relative="1" as="geometry">
            <mxPoint x="1592" y="643" as="sourcePoint" />
            <mxPoint x="1752" y="643" as="targetPoint" />
          </mxGeometry>
        </mxCell>
        <mxCell id="qFEmB10UOR8r2m2RjTvE-40" value="" style="endArrow=block;dashed=1;endFill=0;endSize=12;html=1;rounded=0;exitX=0.331;exitY=-0.001;exitDx=0;exitDy=0;exitPerimeter=0;entryX=0.565;entryY=1.01;entryDx=0;entryDy=0;entryPerimeter=0;" parent="1" source="1EWZOVvbNaI_VQ29JEXc-29" target="1EWZOVvbNaI_VQ29JEXc-19" edge="1">
          <mxGeometry width="160" relative="1" as="geometry">
            <mxPoint x="1508" y="427" as="sourcePoint" />
            <mxPoint x="1668" y="427" as="targetPoint" />
          </mxGeometry>
        </mxCell>
        <mxCell id="qFEmB10UOR8r2m2RjTvE-41" value="" style="endArrow=block;dashed=1;endFill=0;endSize=12;html=1;rounded=0;entryX=0.5;entryY=0;entryDx=0;entryDy=0;exitX=0.369;exitY=0.989;exitDx=0;exitDy=0;exitPerimeter=0;" parent="1" source="1EWZOVvbNaI_VQ29JEXc-25" target="1EWZOVvbNaI_VQ29JEXc-19" edge="1">
          <mxGeometry width="160" relative="1" as="geometry">
            <mxPoint x="1515" y="380" as="sourcePoint" />
            <mxPoint x="1668" y="349" as="targetPoint" />
          </mxGeometry>
        </mxCell>
        <mxCell id="qFEmB10UOR8r2m2RjTvE-42" value="" style="endArrow=block;dashed=1;endFill=0;endSize=12;html=1;rounded=0;exitX=0;exitY=0.75;exitDx=0;exitDy=0;entryX=1;entryY=0.25;entryDx=0;entryDy=0;" parent="1" source="1EWZOVvbNaI_VQ29JEXc-27" target="1EWZOVvbNaI_VQ29JEXc-19" edge="1">
          <mxGeometry width="160" relative="1" as="geometry">
            <mxPoint x="1508" y="349" as="sourcePoint" />
            <mxPoint x="1661" y="463" as="targetPoint" />
          </mxGeometry>
        </mxCell>
        <mxCell id="qFEmB10UOR8r2m2RjTvE-45" value="" style="endArrow=block;dashed=1;endFill=0;endSize=12;html=1;rounded=0;exitX=0;exitY=0.75;exitDx=0;exitDy=0;entryX=1;entryY=0.75;entryDx=0;entryDy=0;" parent="1" source="XiT6eA-BP94YaVYVDS5J-7" target="1EWZOVvbNaI_VQ29JEXc-19" edge="1">
          <mxGeometry width="160" relative="1" as="geometry">
            <mxPoint x="1677" y="549" as="sourcePoint" />
            <mxPoint x="1837" y="549" as="targetPoint" />
          </mxGeometry>
        </mxCell>
        <mxCell id="Q-728pbr57JZSjrxV8D--2" value="&lt;p style=&quot;margin:0px;margin-top:4px;text-align:center;&quot;&gt;&lt;i&gt;&amp;lt;&amp;lt;Enumeration&amp;gt;&amp;gt;&lt;/i&gt;&lt;br&gt;&lt;b&gt;LogicalOperation&lt;/b&gt;&lt;/p&gt;&lt;hr size=&quot;1&quot;&gt;&lt;div style=&quot;height:2px;&quot;&gt;&lt;b&gt;&amp;nbsp;OR&lt;br&gt;&amp;nbsp;AND&lt;br&gt;&amp;nbsp;NOT&amp;nbsp;&lt;/b&gt;&lt;/div&gt;&lt;div style=&quot;height:2px;&quot;&gt;&lt;b&gt;&lt;br&gt;&lt;/b&gt;&lt;/div&gt;" style="verticalAlign=top;align=left;overflow=fill;fontSize=12;fontFamily=Helvetica;html=1;whiteSpace=wrap;" parent="1" vertex="1">
          <mxGeometry x="2263" y="-287" width="140" height="98" as="geometry" />
        </mxCell>
        <mxCell id="Q-728pbr57JZSjrxV8D--4" value="" style="endArrow=open;endFill=1;endSize=12;html=1;rounded=0;exitX=0.5;exitY=0.994;exitDx=0;exitDy=0;exitPerimeter=0;entryX=0.099;entryY=-0.027;entryDx=0;entryDy=0;entryPerimeter=0;" parent="1" source="OS-Ou4QBS4Z1JC2cFNdL-9" target="1EWZOVvbNaI_VQ29JEXc-19" edge="1">
          <mxGeometry width="160" relative="1" as="geometry">
            <mxPoint x="1107" y="245" as="sourcePoint" />
            <mxPoint x="1212.0411508982666" y="326" as="targetPoint" />
          </mxGeometry>
        </mxCell>
        <mxCell id="oyJtF9SZZUPFp3WXt0Ym-2" value="&lt;p style=&quot;margin:0px;margin-top:4px;text-align:center;&quot;&gt;&lt;b&gt;CompositeAction&lt;/b&gt;&lt;/p&gt;&lt;hr size=&quot;1&quot;&gt;&lt;p style=&quot;margin:0px;margin-left:4px;&quot;&gt;&lt;b&gt;- actions:&lt;/b&gt;&amp;nbsp;List&amp;lt;action&amp;gt;&amp;nbsp;&lt;/p&gt;&lt;hr size=&quot;1&quot;&gt;&lt;p style=&quot;margin:0px;margin-left:4px;&quot;&gt;+ &lt;b&gt;addAction(): &lt;/b&gt;void&lt;/p&gt;&lt;p style=&quot;margin:0px;margin-left:4px;&quot;&gt;+ &lt;b&gt;removeAction()&lt;/b&gt;: void&lt;/p&gt;&lt;p style=&quot;margin:0px;margin-left:4px;&quot;&gt;+ &lt;b&gt;execute()&lt;/b&gt;: void&lt;/p&gt;" style="verticalAlign=top;align=left;overflow=fill;fontSize=12;fontFamily=Helvetica;html=1;whiteSpace=wrap;" parent="1" vertex="1">
          <mxGeometry x="1165" y="418" width="160" height="144" as="geometry" />
        </mxCell>
        <mxCell id="oyJtF9SZZUPFp3WXt0Ym-4" value="" style="endArrow=diamondThin;endFill=0;endSize=24;html=1;rounded=0;exitX=0.001;exitY=0.409;exitDx=0;exitDy=0;exitPerimeter=0;" parent="1" source="1EWZOVvbNaI_VQ29JEXc-19" target="oyJtF9SZZUPFp3WXt0Ym-2" edge="1">
          <mxGeometry width="160" relative="1" as="geometry">
            <mxPoint x="1358" y="548" as="sourcePoint" />
            <mxPoint x="1518" y="548" as="targetPoint" />
          </mxGeometry>
        </mxCell>
        <mxCell id="GNPylWeS_3rRYJ9vIOWF-1" value="RuleFileManager" style="swimlane;fontStyle=1;align=center;verticalAlign=top;childLayout=stackLayout;horizontal=1;startSize=26;horizontalStack=0;resizeParent=1;resizeParentMax=0;resizeLast=0;collapsible=1;marginBottom=0;whiteSpace=wrap;html=1;" parent="1" vertex="1">
          <mxGeometry x="1506" y="-352" width="305" height="170" as="geometry" />
        </mxCell>
        <mxCell id="GNPylWeS_3rRYJ9vIOWF-2" value="-&lt;b&gt; r&lt;/b&gt;&lt;b style=&quot;border-color: var(--border-color);&quot;&gt;uleFilePath&lt;/b&gt;: String" style="text;strokeColor=none;fillColor=none;align=left;verticalAlign=top;spacingLeft=4;spacingRight=4;overflow=hidden;rotatable=0;points=[[0,0.5],[1,0.5]];portConstraint=eastwest;whiteSpace=wrap;html=1;" parent="GNPylWeS_3rRYJ9vIOWF-1" vertex="1">
          <mxGeometry y="26" width="305" height="24" as="geometry" />
        </mxCell>
        <mxCell id="GNPylWeS_3rRYJ9vIOWF-3" value="" style="line;strokeWidth=1;fillColor=none;align=left;verticalAlign=middle;spacingTop=-1;spacingLeft=3;spacingRight=3;rotatable=0;labelPosition=right;points=[];portConstraint=eastwest;strokeColor=inherit;" parent="GNPylWeS_3rRYJ9vIOWF-1" vertex="1">
          <mxGeometry y="50" width="305" height="8" as="geometry" />
        </mxCell>
        <mxCell id="GNPylWeS_3rRYJ9vIOWF-4" value="+&lt;b&gt;RuleFileManager&lt;/b&gt;(ruleFilePath:String)&lt;br&gt;+&lt;b&gt;saveRulesToFile&lt;/b&gt;(ruleList : List&amp;lt;Rule&amp;gt;) : void&lt;br&gt;+&lt;b&gt;loadRulesFromFile&lt;/b&gt;(): List&amp;lt;Rule&amp;gt;&lt;br&gt;+&lt;b&gt;getRuleFilePath&lt;/b&gt;(): String&lt;br&gt;+&lt;b&gt;setRuleFilePath&lt;/b&gt;(ruleFilePath :String) : void&lt;br&gt;" style="text;strokeColor=none;fillColor=none;align=left;verticalAlign=top;spacingLeft=4;spacingRight=4;overflow=hidden;rotatable=0;points=[[0,0.5],[1,0.5]];portConstraint=eastwest;whiteSpace=wrap;html=1;" parent="GNPylWeS_3rRYJ9vIOWF-1" vertex="1">
          <mxGeometry y="58" width="305" height="112" as="geometry" />
        </mxCell>
        <mxCell id="uDao18FvUzJ0v89twIQs-4" value="" style="endArrow=open;endFill=1;endSize=12;html=1;rounded=0;entryX=0.003;entryY=0.082;entryDx=0;entryDy=0;entryPerimeter=0;" parent="1" source="OS-Ou4QBS4Z1JC2cFNdL-6" target="GNPylWeS_3rRYJ9vIOWF-1" edge="1">
          <mxGeometry width="160" relative="1" as="geometry">
            <mxPoint x="1301" y="-263" as="sourcePoint" />
            <mxPoint x="1461" y="-263" as="targetPoint" />
          </mxGeometry>
        </mxCell>
        <mxCell id="8OVLluwEiL71c6K-xW2O-1" value="&lt;p style=&quot;margin:0px;margin-top:4px;text-align:center;&quot;&gt;&lt;b&gt;CompositeTriger&lt;/b&gt;&lt;/p&gt;&lt;hr size=&quot;1&quot;&gt;&lt;p style=&quot;margin:0px;margin-left:4px;&quot;&gt;- &lt;b&gt;trigger1&lt;/b&gt;: Trigger&lt;/p&gt;&lt;p style=&quot;margin:0px;margin-left:4px;&quot;&gt;- &lt;b&gt;trigger2&lt;/b&gt;: Trigger&lt;/p&gt;&lt;p style=&quot;margin:0px;margin-left:4px;&quot;&gt;- &lt;b&gt;opeationType&lt;/b&gt;: LogicalOperation&lt;/p&gt;&lt;p style=&quot;margin:0px;margin-left:4px;&quot;&gt;&lt;br&gt;&lt;/p&gt;&lt;hr size=&quot;1&quot;&gt;&lt;p style=&quot;margin:0px;margin-left:4px;&quot;&gt;+ &lt;b&gt;CompositeTrigger&lt;/b&gt;(&amp;nbsp;&lt;b&gt;trigger1: &lt;/b&gt;Trigger&lt;b&gt;, trigger2: &lt;/b&gt;Trigger, &lt;b&gt;operationType&lt;/b&gt;: LogicalOperation&lt;span style=&quot;background-color: initial;&quot;&gt;)&lt;/span&gt;&lt;/p&gt;&lt;p style=&quot;margin:0px;margin-left:4px;&quot;&gt;+&amp;nbsp;&lt;b style=&quot;border-color: var(--border-color);&quot;&gt;CompositeTrigger&lt;/b&gt;(&amp;nbsp;&lt;b style=&quot;border-color: var(--border-color);&quot;&gt;trigger1:&amp;nbsp;&lt;/b&gt;Trigger&lt;b style=&quot;border-color: var(--border-color);&quot;&gt;,&lt;/b&gt;&amp;nbsp;&lt;b style=&quot;border-color: var(--border-color);&quot;&gt;operationType&lt;/b&gt;: LogicalOperation)&lt;span style=&quot;background-color: initial;&quot;&gt;&lt;br&gt;&lt;/span&gt;&lt;/p&gt;&lt;p style=&quot;margin:0px;margin-left:4px;&quot;&gt;+ &lt;b&gt;checkTrigger&lt;/b&gt;(): boolean&lt;/p&gt;" style="verticalAlign=top;align=left;overflow=fill;fontSize=12;fontFamily=Helvetica;html=1;whiteSpace=wrap;" parent="1" vertex="1">
          <mxGeometry x="7" y="513" width="511" height="163" as="geometry" />
        </mxCell>
        <mxCell id="8OVLluwEiL71c6K-xW2O-2" value="" style="endArrow=diamondThin;endFill=0;endSize=24;html=1;rounded=0;exitX=0.053;exitY=1.015;exitDx=0;exitDy=0;exitPerimeter=0;entryX=0.861;entryY=0;entryDx=0;entryDy=0;entryPerimeter=0;" parent="1" source="1EWZOVvbNaI_VQ29JEXc-3" target="8OVLluwEiL71c6K-xW2O-1" edge="1">
          <mxGeometry width="160" relative="1" as="geometry">
            <mxPoint x="568" y="492" as="sourcePoint" />
            <mxPoint x="436" y="507" as="targetPoint" />
          </mxGeometry>
        </mxCell>
      </root>
    </mxGraphModel>
  </diagram>
</mxfile>
